TITLE ""
FILE "2Q_t_0171-0187.mp3" MP3
  TRACK 01 AUDIO
    TITLE "2Q_t_0171-0187_01"
    INDEX 01 00:00:00
  TRACK 02 AUDIO
    TITLE "2Q_t_0171-0187_02"
    INDEX 01 00:01:14
  TRACK 03 AUDIO
    TITLE "2Q_t_0171-0187_03"
    INDEX 01 00:01:61
  TRACK 04 AUDIO
    TITLE "2Q_t_0171-0187_04"
    INDEX 01 00:03:03
  TRACK 05 AUDIO
    TITLE "2Q_t_0171-0187_05"
    INDEX 01 00:03:46
  TRACK 06 AUDIO
    TITLE "2Q_t_0171-0187_06"
    INDEX 01 00:05:06
  TRACK 07 AUDIO
    TITLE "2Q_t_0171-0187_07"
    INDEX 01 00:05:58
  TRACK 08 AUDIO
    TITLE "2Q_t_0171-0187_08"
    INDEX 01 00:08:55
  TRACK 09 AUDIO
    TITLE "2Q_t_0171-0187_09"
    INDEX 01 00:09:25
  TRACK 10 AUDIO
    TITLE "2Q_t_0171-0187_10"
    INDEX 01 00:10:40
  TRACK 11 AUDIO
    TITLE "2Q_t_0171-0187_11"
    INDEX 01 00:11:10
  TRACK 12 AUDIO
    TITLE "2Q_t_0171-0187_12"
    INDEX 01 00:15:31
  TRACK 13 AUDIO
    TITLE "2Q_t_0171-0187_13"
    INDEX 01 00:16:01
  TRACK 14 AUDIO
    TITLE "2Q_t_0171-0187_14"
    INDEX 01 00:17:34
  TRACK 15 AUDIO
    TITLE "2Q_t_0171-0187_15"
    INDEX 01 00:18:06
  TRACK 16 AUDIO
    TITLE "2Q_t_0171-0187_16"
    INDEX 01 00:21:59
  TRACK 17 AUDIO
    TITLE "2Q_t_0171-0187_17"
    INDEX 01 00:22:28
  TRACK 18 AUDIO
    TITLE "2Q_t_0171-0187_18"
    INDEX 01 00:23:49
  TRACK 19 AUDIO
    TITLE "2Q_t_0171-0187_19"
    INDEX 01 00:24:19
  TRACK 20 AUDIO
    TITLE "2Q_t_0171-0187_20"
    INDEX 01 00:25:38
  TRACK 21 AUDIO
    TITLE "2Q_t_0171-0187_21"
    INDEX 01 00:26:06
  TRACK 22 AUDIO
    TITLE "2Q_t_0171-0187_22"
    INDEX 01 00:27:21
  TRACK 23 AUDIO
    TITLE "2Q_t_0171-0187_23"
    INDEX 01 00:27:74
  TRACK 24 AUDIO
    TITLE "2Q_t_0171-0187_24"
    INDEX 01 00:31:28
  TRACK 25 AUDIO
    TITLE "2Q_t_0171-0187_25"
    INDEX 01 00:32:01
  TRACK 26 AUDIO
    TITLE "2Q_t_0171-0187_26"
    INDEX 01 00:33:18
  TRACK 27 AUDIO
    TITLE "2Q_t_0171-0187_27"
    INDEX 01 00:33:65
  TRACK 28 AUDIO
    TITLE "2Q_t_0171-0187_28"
    INDEX 01 00:35:73
  TRACK 29 AUDIO
    TITLE "2Q_t_0171-0187_29"
    INDEX 01 00:36:43
  TRACK 30 AUDIO
    TITLE "2Q_t_0171-0187_30"
    INDEX 01 00:37:70
  TRACK 31 AUDIO
    TITLE "2Q_t_0171-0187_31"
    INDEX 01 00:38:40
  TRACK 32 AUDIO
    TITLE "2Q_t_0171-0187_32"
    INDEX 01 00:40:69
  TRACK 33 AUDIO
    TITLE "2Q_t_0171-0187_33"
    INDEX 01 00:41:39
  TRACK 34 AUDIO
    TITLE "2Q_t_0171-0187_34"
    INDEX 01 00:42:52
  TRACK 35 AUDIO
    TITLE "2Q_t_0171-0187_35"
    INDEX 01 00:43:22
  TRACK 36 AUDIO
    TITLE "2Q_t_0171-0187_36"
    INDEX 01 00:45:38
  TRACK 37 AUDIO
    TITLE "2Q_t_0171-0187_37"
    INDEX 01 00:46:10
  TRACK 38 AUDIO
    TITLE "2Q_t_0171-0187_38"
    INDEX 01 00:47:06
  TRACK 39 AUDIO
    TITLE "2Q_t_0171-0187_39"
    INDEX 01 00:47:55
  TRACK 40 AUDIO
    TITLE "2Q_t_0171-0187_40"
    INDEX 01 00:51:27
  TRACK 41 AUDIO
    TITLE "2Q_t_0171-0187_41"
    INDEX 01 00:51:74
  TRACK 42 AUDIO
    TITLE "2Q_t_0171-0187_42"
    INDEX 01 00:53:01
  TRACK 43 AUDIO
    TITLE "2Q_t_0171-0187_43"
    INDEX 01 00:53:54
  TRACK 44 AUDIO
    TITLE "2Q_t_0171-0187_44"
    INDEX 01 00:57:63
  TRACK 45 AUDIO
    TITLE "2Q_t_0171-0187_45"
    INDEX 01 00:58:33
  TRACK 46 AUDIO
    TITLE "2Q_t_0171-0187_46"
    INDEX 01 00:59:54
  TRACK 47 AUDIO
    TITLE "2Q_t_0171-0187_47"
    INDEX 01 01:00:24
  TRACK 48 AUDIO
    TITLE "2Q_t_0171-0187_48"
    INDEX 01 01:01:33
  TRACK 49 AUDIO
    TITLE "2Q_t_0171-0187_49"
    INDEX 01 01:02:04
  TRACK 50 AUDIO
    TITLE "2Q_t_0171-0187_50"
    INDEX 01 01:04:65
  TRACK 51 AUDIO
    TITLE "2Q_t_0171-0187_51"
    INDEX 01 01:05:35
  TRACK 52 AUDIO
    TITLE "2Q_t_0171-0187_52"
    INDEX 01 01:06:44
  TRACK 53 AUDIO
    TITLE "2Q_t_0171-0187_53"
    INDEX 01 01:07:16
  TRACK 54 AUDIO
    TITLE "2Q_t_0171-0187_54"
    INDEX 01 01:08:39
  TRACK 55 AUDIO
    TITLE "2Q_t_0171-0187_55"
    INDEX 01 01:09:10
  TRACK 56 AUDIO
    TITLE "2Q_t_0171-0187_56"
    INDEX 01 01:10:32
  TRACK 57 AUDIO
    TITLE "2Q_t_0171-0187_57"
    INDEX 01 01:11:08
  TRACK 58 AUDIO
    TITLE "2Q_t_0171-0187_58"
    INDEX 01 01:15:08
  TRACK 59 AUDIO
    TITLE "2Q_t_0171-0187_59"
    INDEX 01 01:15:51
  TRACK 60 AUDIO
    TITLE "2Q_t_0171-0187_60"
    INDEX 01 01:16:57
  TRACK 61 AUDIO
    TITLE "2Q_t_0171-0187_61"
    INDEX 01 01:17:29
  TRACK 62 AUDIO
    TITLE "2Q_t_0171-0187_62"
    INDEX 01 01:19:49
  TRACK 63 AUDIO
    TITLE "2Q_t_0171-0187_63"
    INDEX 01 01:20:17
  TRACK 64 AUDIO
    TITLE "2Q_t_0171-0187_64"
    INDEX 01 01:21:48
  TRACK 65 AUDIO
    TITLE "2Q_t_0171-0187_65"
    INDEX 01 01:22:26
  TRACK 66 AUDIO
    TITLE "2Q_t_0171-0187_66"
    INDEX 01 01:23:57
  TRACK 67 AUDIO
    TITLE "2Q_t_0171-0187_67"
    INDEX 01 01:24:27
  TRACK 68 AUDIO
    TITLE "2Q_t_0171-0187_68"
    INDEX 01 01:25:38
  TRACK 69 AUDIO
    TITLE "2Q_t_0171-0187_69"
    INDEX 01 01:26:14
  TRACK 70 AUDIO
    TITLE "2Q_t_0171-0187_70"
    INDEX 01 01:27:51
